<svg width="" height="" viewBox="0 0 22 21" fill="none" xmlns="http://www.w3.org/2000/svg">
<path d="M0.691406 3.14481C0.691406 2.48575 0.9253 1.94203 1.39307 1.51367C1.86084 1.08528 2.46896 0.871094 3.21739 0.871094C3.95247 0.871094 4.5472 1.08198 5.00162 1.50378C5.46939 1.93875 5.70328 2.50552 5.70328 3.20412C5.70328 3.83681 5.47608 4.36403 5.02167 4.78584C4.5539 5.22081 3.9391 5.4383 3.1773 5.4383H3.15725C2.42217 5.4383 1.82744 5.22081 1.37302 4.78584C0.918605 4.35087 0.691406 3.80385 0.691406 3.14481ZM0.952024 20.4448V7.2375H5.40257V20.4448H0.952024ZM7.86841 20.4448H12.319V13.0701C12.319 12.6087 12.3724 12.2528 12.4793 12.0024C12.6664 11.5543 12.9505 11.1753 13.3314 10.8656C13.7123 10.5558 14.1901 10.4009 14.7648 10.4009C16.2616 10.4009 17.0101 11.3961 17.0101 13.3864V20.4448H21.4606V12.8724C21.4606 10.9216 20.9929 9.44201 20.0573 8.43367C19.1217 7.42532 17.8855 6.92115 16.3485 6.92115C14.6244 6.92115 13.2812 7.6527 12.319 9.11578V9.15532H12.2989L12.319 9.11578V7.2375H7.86841C7.89514 7.65928 7.90851 8.97078 7.90851 11.172C7.90851 13.3732 7.89514 16.4642 7.86841 20.4448Z" fill=""/>
</svg>
