<svg width="" height="" viewBox="0 0 21 16" fill="none" xmlns="http://www.w3.org/2000/svg">
<path d="M10.501 6.70122L20.0859 0.543748C19.7006 0.25471 19.2326 0.0969758 18.7509 0.09375H2.25101C1.76931 0.0969758 1.30137 0.25471 0.916016 0.543748L10.501 6.70122Z" fill=""/>
<path d="M10.905 8.22306L10.7775 8.28306H10.7175C10.6484 8.31391 10.5751 8.33414 10.5 8.34306C10.4377 8.3509 10.3747 8.3509 10.3125 8.34306H10.2525L10.125 8.28306L0.0749996 1.78809C0.0269835 1.96924 0.00178852 2.15568 0 2.34308V12.843C0 13.4398 0.237052 14.0121 0.659007 14.434C1.08096 14.856 1.65326 15.093 2.24999 15.093H18.7499C19.3467 15.093 19.919 14.856 20.3409 14.434C20.7629 14.0121 20.9999 13.4398 20.9999 12.843V2.34308C20.9981 2.15568 20.9729 1.96924 20.9249 1.78809L10.905 8.22306Z" fill=""/>
</svg>
