<svg width="" height="" viewBox="0 0 108 126" fill="none" xmlns="http://www.w3.org/2000/svg">
<g filter="url(#filter0_d_436_198)">
<path d="M80.4285 8H8V118H100V26.331L80.4285 8Z" fill="white"/>
<path d="M86.4602 79.2638C84.8381 76.3727 79.233 75.4643 76.6616 75.0556C74.6347 74.7332 72.5656 74.637 70.5156 74.6388C68.9059 74.6281 67.3199 74.7074 65.7543 74.7964C65.1772 74.8352 64.606 74.885 64.0351 74.9345C63.45 74.3289 62.8846 73.7033 62.3373 73.0634C58.8553 68.9416 56.0439 64.2672 53.753 59.4097C54.3612 57.0627 54.8479 54.6133 55.1418 52.0695C55.6783 47.4267 55.8627 42.1356 54.123 37.7091C53.5223 36.1814 51.9207 34.3215 50.0728 35.2477C47.9485 36.3128 47.3509 39.3304 47.1777 41.4694C47.0383 43.1984 47.1359 44.9318 47.4262 46.6319C47.7218 48.3435 48.1978 49.9687 48.7161 51.5917C49.1997 53.0798 49.7327 54.5563 50.3137 56.019C49.9451 57.1705 49.5537 58.3019 49.1427 59.4044C48.1845 61.917 47.1483 64.3041 46.1518 66.6004C45.6264 67.7389 45.1121 68.8534 44.609 69.943C43.0167 73.4406 41.2882 76.8741 39.3481 80.1931C34.8229 81.7894 30.762 83.6399 27.3895 85.8146C25.5804 86.9834 23.9824 88.2529 22.6514 89.6452C21.3949 90.9597 20.1179 92.6655 20.0061 94.5539C19.9433 95.6198 20.3654 96.6542 21.2386 97.2865C22.4395 98.1837 24.0309 98.124 25.4241 97.8319C29.9881 96.8746 33.4928 92.9513 36.4775 89.6448C38.5333 87.3672 40.8732 84.4752 43.3208 80.9776C43.3261 80.9696 43.3315 80.9616 43.3373 80.9536C47.5353 79.6521 52.1042 78.5532 56.9531 77.7454C59.1683 77.3781 61.4423 77.0775 63.7617 76.8665C65.3927 78.3942 67.1551 79.7852 69.0778 80.9469C70.5752 81.8682 72.1679 82.6461 73.835 83.2262C75.5208 83.777 77.2168 84.2268 78.9681 84.5113C79.8524 84.6377 80.7567 84.6952 81.6807 84.6605C83.7427 84.5825 86.7024 83.7917 86.8965 81.2898C86.9562 80.5239 86.791 79.8525 86.4602 79.2638ZM37.0937 83.8545C36.1279 85.3506 35.1964 86.6962 34.3188 87.8802C32.1695 90.8047 29.7147 94.2783 26.1606 95.5771C25.4856 95.8238 24.5968 96.0785 23.66 96.0233C22.8255 95.9743 22.0027 95.606 22.0405 94.6585C22.0592 94.1625 22.3019 93.5298 22.6742 92.9082C23.0816 92.2265 23.5861 91.6013 24.1324 91.0265C25.303 89.7966 26.7831 88.6046 28.4858 87.5008C31.0973 85.8066 34.2151 84.2815 37.6904 82.9208C37.4905 83.2369 37.291 83.5513 37.0937 83.8545ZM49.2148 46.3362C48.9468 44.7715 48.9062 43.1851 49.071 41.6596C49.1529 40.8968 49.3083 40.1523 49.5332 39.4546C49.7238 38.8624 50.1352 37.4171 50.7915 37.2314C51.8735 36.925 52.2061 39.248 52.3286 39.9052C53.0259 43.6437 52.4114 47.8012 51.5747 51.4684C51.4416 52.0517 51.2933 52.6256 51.1415 53.1974C50.8823 52.4845 50.6352 51.7694 50.4077 51.0507C49.9179 49.4811 49.47 47.8933 49.2148 46.3362ZM56.6432 75.8486C52.5779 76.5076 48.7108 77.371 45.0756 78.3902C45.5133 78.2677 47.5134 74.4772 47.9596 73.6904C50.0617 69.988 51.7813 66.1021 53.017 62.0257C55.1988 66.3408 57.8468 70.4689 61.0999 74.1432C61.3996 74.4767 61.7041 74.8062 62.014 75.1317C60.1911 75.3281 58.3971 75.5672 56.6432 75.8486ZM84.1359 81.0556C83.9872 81.8593 82.2706 82.3188 81.4696 82.4452C79.1026 82.8175 76.5984 82.5196 74.3328 81.7586C72.7784 81.2368 71.2792 80.5261 69.8548 79.6712C68.4388 78.8159 67.1142 77.8096 65.8759 76.7C67.4027 76.6082 68.9482 76.5481 70.5013 76.5775C72.0544 76.5931 73.6195 76.6715 75.1655 76.8732C78.0646 77.1964 81.3133 78.1916 83.5953 80.0729C84.0446 80.4438 84.188 80.7715 84.1359 81.0556Z" fill="#1637BA"/>
<path d="M87.4602 80.2638C85.8381 77.3727 80.233 76.4643 77.6616 76.0556C75.6347 75.7332 73.5656 75.637 71.5156 75.6388C69.9059 75.6281 68.3199 75.7074 66.7543 75.7964C66.1772 75.8352 65.606 75.885 65.0351 75.9345C64.45 75.3289 63.8846 74.7033 63.3373 74.0634C59.8553 69.9416 57.0439 65.2672 54.753 60.4097C55.3612 58.0627 55.8479 55.6133 56.1418 53.0695C56.6783 48.4267 56.8627 43.1356 55.123 38.7091C54.5223 37.1814 52.9207 35.3215 51.0728 36.2477C48.9485 37.3128 48.3509 40.3304 48.1777 42.4694C48.0383 44.1984 48.1359 45.9318 48.4262 47.6319C48.7218 49.3435 49.1978 50.9687 49.7161 52.5917C50.1997 54.0798 50.7327 55.5563 51.3137 57.019C50.9451 58.1705 50.5537 59.3019 50.1427 60.4044C49.1845 62.917 48.1483 65.3041 47.1518 67.6004C46.6264 68.7389 46.1121 69.8534 45.609 70.943C44.0167 74.4406 42.2882 77.8741 40.3481 81.1931C35.8229 82.7894 31.762 84.6399 28.3895 86.8146C26.5804 87.9834 24.9824 89.2529 23.6514 90.6452C22.3949 91.9597 21.1179 93.6655 21.0061 95.5539C20.9433 96.6198 21.3654 97.6542 22.2386 98.2865C23.4395 99.1837 25.0309 99.124 26.4241 98.8319C30.9881 97.8746 34.4928 93.9513 37.4775 90.6448C39.5333 88.3672 41.8732 85.4752 44.3208 81.9776C44.3261 81.9696 44.3315 81.9616 44.3373 81.9536C48.5353 80.6521 53.1042 79.5532 57.9531 78.7454C60.1683 78.3781 62.4423 78.0775 64.7617 77.8665C66.3927 79.3942 68.1551 80.7852 70.0778 81.9469C71.5752 82.8682 73.1679 83.6461 74.835 84.2262C76.5208 84.777 78.2168 85.2268 79.9681 85.5113C80.8524 85.6377 81.7567 85.6952 82.6807 85.6605C84.7427 85.5825 87.7024 84.7917 87.8965 82.2898C87.9562 81.5239 87.791 80.8525 87.4602 80.2638ZM38.0937 84.8545C37.1279 86.3506 36.1964 87.6962 35.3188 88.8802C33.1695 91.8047 30.7147 95.2783 27.1606 96.5771C26.4856 96.8238 25.5968 97.0785 24.66 97.0233C23.8255 96.9743 23.0027 96.606 23.0405 95.6585C23.0592 95.1625 23.3019 94.5298 23.6742 93.9082C24.0816 93.2265 24.5861 92.6013 25.1324 92.0265C26.303 90.7966 27.7831 89.6046 29.4858 88.5008C32.0973 86.8066 35.2151 85.2815 38.6904 83.9208C38.4905 84.2369 38.291 84.5513 38.0937 84.8545ZM50.2148 47.3362C49.9468 45.7715 49.9062 44.1851 50.071 42.6596C50.1529 41.8968 50.3083 41.1523 50.5332 40.4546C50.7238 39.8624 51.1352 38.4171 51.7915 38.2314C52.8735 37.925 53.2061 40.248 53.3286 40.9052C54.0259 44.6437 53.4114 48.8012 52.5747 52.4684C52.4416 53.0517 52.2933 53.6256 52.1415 54.1974C51.8823 53.4845 51.6352 52.7694 51.4077 52.0507C50.9179 50.4811 50.47 48.8933 50.2148 47.3362ZM57.6432 76.8486C53.5779 77.5076 49.7108 78.371 46.0756 79.3902C46.5133 79.2677 48.5134 75.4772 48.9596 74.6904C51.0617 70.988 52.7813 67.1021 54.017 63.0257C56.1988 67.3408 58.8468 71.4689 62.0999 75.1432C62.3996 75.4767 62.7041 75.8062 63.014 76.1317C61.1911 76.3281 59.3971 76.5672 57.6432 76.8486ZM85.1359 82.0556C84.9872 82.8593 83.2706 83.3188 82.4696 83.4452C80.1026 83.8175 77.5984 83.5196 75.3328 82.7586C73.7784 82.2368 72.2792 81.5261 70.8548 80.6712C69.4388 79.8159 68.1142 78.8096 66.8759 77.7C68.4027 77.6082 69.9482 77.5481 71.5013 77.5775C73.0544 77.5931 74.6195 77.6715 76.1655 77.8732C79.0646 78.1964 82.3133 79.1916 84.5953 81.0729C85.0446 81.4438 85.188 81.7715 85.1359 82.0556Z" fill="#1637BA"/>
<path d="M87 19H8V8H83.829L87 19Z" fill="#1637BA"/>
<path d="M84 26.34H100L84 8V26.34Z" fill="#D1D3D3"/>
</g>
<defs>
<filter id="filter0_d_436_198" x="0" y="0" width="108" height="126" filterUnits="userSpaceOnUse" color-interpolation-filters="sRGB">
<feFlood flood-opacity="0" result="BackgroundImageFix"/>
<feColorMatrix in="SourceAlpha" type="matrix" values="0 0 0 0 0 0 0 0 0 0 0 0 0 0 0 0 0 0 127 0" result="hardAlpha"/>
<feOffset/>
<feGaussianBlur stdDeviation="4"/>
<feComposite in2="hardAlpha" operator="out"/>
<feColorMatrix type="matrix" values="0 0 0 0 0 0 0 0 0 0 0 0 0 0 0 0 0 0 0.15 0"/>
<feBlend mode="normal" in2="BackgroundImageFix" result="effect1_dropShadow_436_198"/>
<feBlend mode="normal" in="SourceGraphic" in2="effect1_dropShadow_436_198" result="shape"/>
</filter>
</defs>
</svg>
