<svg width="" height="" viewBox="0 0 34 34" fill="none" xmlns="http://www.w3.org/2000/svg">
<path d="M25.7225 21.3991L22.8788 22.9973C22.5375 23.189 22.1428 23.264 21.7548 23.2108C21.3668 23.1577 21.0069 22.9793 20.7301 22.7029L11.239 13.2344C10.9622 12.9581 10.7836 12.5991 10.7303 12.2121C10.677 11.8251 10.7521 11.4313 10.9439 11.0908L12.546 8.25386C12.8343 7.74328 12.9472 7.15255 12.8674 6.57194C12.7876 5.99132 12.5195 5.45272 12.104 5.03843L7.84191 0.786471C7.59211 0.537137 7.29551 0.339348 6.96906 0.204402C6.64261 0.0694567 6.29271 0 5.93935 0C5.58599 0 5.23608 0.0694567 4.90964 0.204402C4.58319 0.339348 4.28659 0.537137 4.03679 0.786471L2.10159 2.71573C0.969941 3.84467 0.249105 5.31864 0.0536973 6.90328C-0.141711 8.48791 0.199527 10.0922 1.02315 11.4611L1.99415 13.0756C6.95283 21.3203 13.9519 28.1556 22.3199 32.9258L22.5116 33.0357C25.3702 34.6651 28.902 34.1903 31.1908 31.9083L33.2117 29.8922C33.4616 29.643 33.6598 29.3471 33.7951 29.0214C33.9304 28.6957 34 28.3467 34 27.9941C34 27.6416 33.9304 27.2925 33.7951 26.9669C33.6598 26.6412 33.4616 26.3453 33.2117 26.0961L28.9469 21.8414C28.5317 21.4264 27.9916 21.1584 27.4093 21.0786C26.827 20.9987 26.2345 21.1113 25.7225 21.3991Z" fill=""/>
</svg>
