<svg width="" height="" viewBox="0 0 40 44" fill="none" xmlns="http://www.w3.org/2000/svg">
<path d="M11.1111 22H15.5556C16.1449 22 16.7102 21.7682 17.1269 21.3556C17.5437 20.9431 17.7778 20.3835 17.7778 19.8C17.7778 19.2165 17.5437 18.6569 17.1269 18.2444C16.7102 17.8318 16.1449 17.6 15.5556 17.6H11.1111C10.5217 17.6 9.95651 17.8318 9.53976 18.2444C9.12302 18.6569 8.88889 19.2165 8.88889 19.8C8.88889 20.3835 9.12302 20.9431 9.53976 21.3556C9.95651 21.7682 10.5217 22 11.1111 22ZM31.1111 8.8H20V4.4H22.2222C22.8116 4.4 23.3768 4.16822 23.7936 3.75564C24.2103 3.34306 24.4444 2.78348 24.4444 2.2C24.4444 1.61652 24.2103 1.05694 23.7936 0.644365C23.3768 0.231785 22.8116 0 22.2222 0H17.7778C17.1884 0 16.6232 0.231785 16.2064 0.644365C15.7897 1.05694 15.5556 1.61652 15.5556 2.2V8.8H8.88889C6.53141 8.8 4.27048 9.72714 2.60349 11.3775C0.936505 13.0278 0 15.2661 0 17.6V30.8C0 31.3835 0.234126 31.9431 0.650874 32.3556C1.06762 32.7682 1.63285 33 2.22222 33H15.5556V41.8C15.5556 42.3835 15.7897 42.9431 16.2064 43.3556C16.6232 43.7682 17.1884 44 17.7778 44C18.3671 44 18.9324 43.7682 19.3491 43.3556C19.7659 42.9431 20 42.3835 20 41.8V33H37.7778C38.3671 33 38.9324 32.7682 39.3491 32.3556C39.7659 31.9431 40 31.3835 40 30.8V17.6C40 15.2661 39.0635 13.0278 37.3965 11.3775C35.7295 9.72714 33.4686 8.8 31.1111 8.8ZM22.2222 17.6V28.6H4.44444V17.6C4.44444 16.433 4.9127 15.3139 5.74619 14.4887C6.57969 13.6636 7.71015 13.2 8.88889 13.2H23.4667C22.6588 14.5288 22.2288 16.0491 22.2222 17.6ZM35.5556 28.6H26.6667V17.6C26.6667 16.433 27.1349 15.3139 27.9684 14.4887C28.8019 13.6636 29.9324 13.2 31.1111 13.2C32.2899 13.2 33.4203 13.6636 34.2538 14.4887C35.0873 15.3139 35.5556 16.433 35.5556 17.6V28.6Z" fill=""/>
</svg>
