<svg width="" height="" viewBox="0 0 20 20" fill="none" xmlns="http://www.w3.org/2000/svg">
<mask id="path-1-inside-1_2482_4953" fill="white">
<path d="M19.6714 18.0942L15.8949 14.3287C17.1134 12.7764 17.7745 10.8595 17.7721 8.88603C17.7721 7.12854 17.2509 5.41052 16.2745 3.94922C15.2981 2.48792 13.9103 1.34897 12.2866 0.676412C10.6629 0.00385015 8.87617 -0.172123 7.15245 0.170746C5.42873 0.513616 3.84539 1.35993 2.60266 2.60266C1.35993 3.84539 0.513616 5.42873 0.170746 7.15245C-0.172123 8.87617 0.00385015 10.6629 0.676412 12.2866C1.34897 13.9103 2.48792 15.2981 3.94922 16.2745C5.41052 17.2509 7.12854 17.7721 8.88603 17.7721C10.8595 17.7745 12.7764 17.1134 14.3287 15.8949L18.0942 19.6714C18.1974 19.7755 18.3203 19.8582 18.4556 19.9146C18.591 19.971 18.7362 20 18.8828 20C19.0294 20 19.1746 19.971 19.31 19.9146C19.4453 19.8582 19.5682 19.7755 19.6714 19.6714C19.7755 19.5682 19.8582 19.4453 19.9146 19.31C19.971 19.1746 20 19.0294 20 18.8828C20 18.7362 19.971 18.591 19.9146 18.4556C19.8582 18.3203 19.7755 18.1974 19.6714 18.0942ZM2.22151 8.88603C2.22151 7.56791 2.61238 6.2794 3.34468 5.18342C4.07699 4.08745 5.11785 3.23324 6.33563 2.72882C7.55341 2.22439 8.89342 2.09241 10.1862 2.34957C11.479 2.60672 12.6665 3.24145 13.5986 4.1735C14.5306 5.10555 15.1653 6.29306 15.4225 7.58585C15.6796 8.87864 15.5477 10.2186 15.0432 11.4364C14.5388 12.6542 13.6846 13.6951 12.5886 14.4274C11.4927 15.1597 10.2041 15.5505 8.88603 15.5505C7.11849 15.5505 5.42334 14.8484 4.1735 13.5986C2.92366 12.3487 2.22151 10.6536 2.22151 8.88603Z"/>
</mask>
<path d="M19.6714 18.0942L15.8949 14.3287C17.1134 12.7764 17.7745 10.8595 17.7721 8.88603C17.7721 7.12854 17.2509 5.41052 16.2745 3.94922C15.2981 2.48792 13.9103 1.34897 12.2866 0.676412C10.6629 0.00385015 8.87617 -0.172123 7.15245 0.170746C5.42873 0.513616 3.84539 1.35993 2.60266 2.60266C1.35993 3.84539 0.513616 5.42873 0.170746 7.15245C-0.172123 8.87617 0.00385015 10.6629 0.676412 12.2866C1.34897 13.9103 2.48792 15.2981 3.94922 16.2745C5.41052 17.2509 7.12854 17.7721 8.88603 17.7721C10.8595 17.7745 12.7764 17.1134 14.3287 15.8949L18.0942 19.6714C18.1974 19.7755 18.3203 19.8582 18.4556 19.9146C18.591 19.971 18.7362 20 18.8828 20C19.0294 20 19.1746 19.971 19.31 19.9146C19.4453 19.8582 19.5682 19.7755 19.6714 19.6714C19.7755 19.5682 19.8582 19.4453 19.9146 19.31C19.971 19.1746 20 19.0294 20 18.8828C20 18.7362 19.971 18.591 19.9146 18.4556C19.8582 18.3203 19.7755 18.1974 19.6714 18.0942ZM2.22151 8.88603C2.22151 7.56791 2.61238 6.2794 3.34468 5.18342C4.07699 4.08745 5.11785 3.23324 6.33563 2.72882C7.55341 2.22439 8.89342 2.09241 10.1862 2.34957C11.479 2.60672 12.6665 3.24145 13.5986 4.1735C14.5306 5.10555 15.1653 6.29306 15.4225 7.58585C15.6796 8.87864 15.5477 10.2186 15.0432 11.4364C14.5388 12.6542 13.6846 13.6951 12.5886 14.4274C11.4927 15.1597 10.2041 15.5505 8.88603 15.5505C7.11849 15.5505 5.42334 14.8484 4.1735 13.5986C2.92366 12.3487 2.22151 10.6536 2.22151 8.88603Z" fill="white"/>
<path d="M19.6714 18.0942L17.5532 20.2186L17.5588 20.2242L19.6714 18.0942ZM15.8949 14.3287L13.535 12.4764L11.8901 14.5721L13.7767 16.4532L15.8949 14.3287ZM17.7721 8.88603H14.7721L14.7721 8.88976L17.7721 8.88603ZM8.88603 17.7721L8.88976 14.7721H8.88603V17.7721ZM14.3287 15.8949L16.4532 13.7767L14.5721 11.8901L12.4764 13.535L14.3287 15.8949ZM18.0942 19.6714L20.2242 17.5588L20.2186 17.5532L18.0942 19.6714ZM19.6714 19.6714L17.5588 17.5414L17.5501 17.5501L17.5414 17.5588L19.6714 19.6714ZM2.22151 8.88603H-0.77849H2.22151ZM8.88603 15.5505V18.5505V15.5505ZM21.7896 15.9697L18.0131 12.2043L13.7767 16.4532L17.5532 20.2186L21.7896 15.9697ZM18.2547 16.181C19.8887 14.0993 20.7753 11.5287 20.7721 8.8823L14.7721 8.88976C14.7737 10.1902 14.338 11.4534 13.535 12.4764L18.2547 16.181ZM20.7721 8.88603C20.7721 6.53519 20.0749 4.23715 18.7689 2.28251L13.7801 5.61593C14.4268 6.58388 14.7721 7.72188 14.7721 8.88603H20.7721ZM18.7689 2.28251C17.4628 0.32786 15.6065 -1.1956 13.4346 -2.09523L11.1385 3.44805C12.214 3.89355 13.1333 4.64798 13.7801 5.61593L18.7689 2.28251ZM13.4346 -2.09523C11.2627 -2.99485 8.87284 -3.23023 6.56718 -2.77161L7.73772 3.1131C8.8795 2.88599 10.063 3.00255 11.1385 3.44805L13.4346 -2.09523ZM6.56718 -2.77161C4.26152 -2.31298 2.14363 -1.18095 0.48134 0.48134L4.72398 4.72398C5.54716 3.90081 6.59595 3.34022 7.73772 3.1131L6.56718 -2.77161ZM0.48134 0.48134C-1.18095 2.14363 -2.31298 4.26152 -2.77161 6.56718L3.1131 7.73772C3.34022 6.59595 3.90081 5.54716 4.72398 4.72398L0.48134 0.48134ZM-2.77161 6.56718C-3.23023 8.87284 -2.99485 11.2627 -2.09523 13.4346L3.44805 11.1385C3.00255 10.063 2.88599 8.8795 3.1131 7.73772L-2.77161 6.56718ZM-2.09523 13.4346C-1.1956 15.6065 0.32786 17.4628 2.28251 18.7689L5.61593 13.7801C4.64798 13.1333 3.89355 12.214 3.44805 11.1385L-2.09523 13.4346ZM2.28251 18.7689C4.23715 20.0749 6.53519 20.7721 8.88603 20.7721V14.7721C7.72188 14.7721 6.58388 14.4268 5.61593 13.7801L2.28251 18.7689ZM8.8823 20.7721C11.5287 20.7753 14.0993 19.8887 16.181 18.2547L12.4764 13.535C11.4534 14.338 10.1902 14.7737 8.88976 14.7721L8.8823 20.7721ZM12.2043 18.0131L15.9697 21.7896L20.2186 17.5532L16.4532 13.7767L12.2043 18.0131ZM15.9642 21.784C16.3463 22.1693 16.8009 22.4751 17.3019 22.6839L19.6094 17.1453C19.8396 17.2412 20.0486 17.3818 20.2242 17.5588L15.9642 21.784ZM17.3019 22.6839C17.8029 22.8926 18.3401 23 18.8828 23V17C19.1322 17 19.3791 17.0494 19.6094 17.1453L17.3019 22.6839ZM18.8828 23C19.4255 23 19.9628 22.8926 20.4637 22.6839L18.1562 17.1453C18.3865 17.0494 18.6334 17 18.8828 17V23ZM20.4637 22.6839C20.9647 22.4751 21.4193 22.1693 21.8014 21.784L17.5414 17.5588C17.717 17.3818 17.926 17.2412 18.1562 17.1453L20.4637 22.6839ZM21.784 21.8014C22.1693 21.4193 22.4751 20.9647 22.6839 20.4637L17.1453 18.1562C17.2412 17.926 17.3818 17.717 17.5588 17.5414L21.784 21.8014ZM22.6839 20.4637C22.8926 19.9628 23 19.4255 23 18.8828H17C17 18.6334 17.0494 18.3865 17.1453 18.1562L22.6839 20.4637ZM23 18.8828C23 18.3401 22.8926 17.8029 22.6839 17.3019L17.1453 19.6094C17.0494 19.3791 17 19.1322 17 18.8828H23ZM22.6839 17.3019C22.4751 16.8009 22.1693 16.3463 21.784 15.9642L17.5588 20.2242C17.3818 20.0486 17.2412 19.8396 17.1453 19.6094L22.6839 17.3019ZM5.22151 8.88603C5.22151 8.16126 5.43643 7.45276 5.83909 6.85013L0.850275 3.51671C-0.211676 5.10603 -0.77849 6.97457 -0.77849 8.88603H5.22151ZM5.83909 6.85013C6.24176 6.2475 6.81408 5.77781 7.48368 5.50045L5.18758 -0.0428223C3.42162 0.688662 1.91223 1.92739 0.850275 3.51671L5.83909 6.85013ZM7.48368 5.50045C8.15328 5.2231 8.89009 5.15053 9.60094 5.29192L10.7715 -0.592789C8.89675 -0.965697 6.95354 -0.774307 5.18758 -0.0428223L7.48368 5.50045ZM9.60094 5.29192C10.3118 5.43332 10.9647 5.78233 11.4772 6.29482L15.7199 2.05218C14.3683 0.700575 12.6462 -0.219881 10.7715 -0.592789L9.60094 5.29192ZM11.4772 6.29482C11.9897 6.80732 12.3387 7.46027 12.4801 8.17112L18.3648 7.00058C17.9919 5.12584 17.0715 3.40379 15.7199 2.05218L11.4772 6.29482ZM12.4801 8.17112C12.6215 8.88196 12.549 9.61878 12.2716 10.2884L17.8149 12.5845C18.5464 10.8185 18.7378 8.87531 18.3648 7.00058L12.4801 8.17112ZM12.2716 10.2884C11.9942 10.958 11.5246 11.5303 10.9219 11.933L14.2553 16.9218C15.8447 15.8598 17.0834 14.3504 17.8149 12.5845L12.2716 10.2884ZM10.9219 11.933C10.3193 12.3356 9.6108 12.5505 8.88603 12.5505V18.5505C10.7975 18.5505 12.666 17.9837 14.2553 16.9218L10.9219 11.933ZM8.88603 12.5505C7.91414 12.5505 6.98205 12.1645 6.29482 11.4772L2.05218 15.7199C3.86463 17.5323 6.32284 18.5505 8.88603 18.5505V12.5505ZM6.29482 11.4772C5.60759 10.79 5.22151 9.85792 5.22151 8.88603H-0.77849C-0.77849 11.4492 0.239734 13.9074 2.05218 15.7199L6.29482 11.4772Z" fill="" mask="url(#path-1-inside-1_2482_4953)"/>
</svg>
